# xmcd
#
# Track frame offsets:
#	150
#	16337
#	30060
#	42312
#	45262
#	50425
#	53900
#	57220
#	60862
#	68550
#	82300
#	98257
#	100375
#	101475
#	103400
#	105300
#	111312
#	121387
#	133087
#	149080
#	160280
#	168500
#	174675
#	180150
#	184950
#	191387
#	194867
#	200212
#
# Disc length: 2990 seconds
#
# Revision: 0
# Processed by: cddbd v1.5.2PL0 Copyright (c) Steve Scherf et al.
# Submitted via: EasyCDDAExtractor 2011.0.0.0
#
DISCID=8a0bac1c
DTITLE=Brenda Lee - I'm Sorry
DYEAR=1995
DGENRE=Country
TTITLE0=Coming On Strong
TTITLE1=You Don't Have To Say You Love Me
TTITLE2=How Much Love
TTITLE3=Jambalaya
TTITLE4=Is It True
TTITLE5=My Whole World Is Falling Down
TTITLE6=Sweet Nothins
TTITLE7=End Of The World
TTITLE8=All Alone Am I
TTITLE9=Your Mama Don't Dance
TTITLE10=You're The One That I Want
TTITLE11=When Your Smiling (The Whole Smiles With You)
TTITLE12=You Ought To Be In The Pictures (My Star Of Dreams)
TTITLE13=Put On A Happy Face
TTITLE14=Smile
TTITLE15=Baby Face
TTITLE16=I'm Sorry
TTITLE17=Silver Threads And Golden Needles
TTITLE18=Johny One Time
TTITLE19=That's All You Gotta Do
TTITLE20=Dum Dum
TTITLE21=Fool Number One
TTITLE22=Too Many Rivers
TTITLE23=Jambalaya
TTITLE24=Good Old Acapella (Soul To Soul)
TTITLE25=The Old Landmark
TTITLE26=I'll Fly Away
TTITLE27=Operator
EXTD=
EXTT0=
EXTT1=
EXTT2=
EXTT3=
EXTT4=
EXTT5=
EXTT6=
EXTT7=
EXTT8=
EXTT9=
EXTT10=
EXTT11=
EXTT12=
EXTT13=
EXTT14=
EXTT15=
EXTT16=
EXTT17=
EXTT18=
EXTT19=
EXTT20=
EXTT21=
EXTT22=
EXTT23=
EXTT24=
EXTT25=
EXTT26=
EXTT27=
PLAYORDER=
